<?xml version="1.0" encoding="utf-8"?>
<!-- Generator: Adobe Illustrator 22.0.1, SVG Export Plug-In . SVG Version: 6.00 Build 0)  -->
<svg version="1.1" id="Layer_1" xmlns="http://www.w3.org/2000/svg" xmlns:xlink="http://www.w3.org/1999/xlink" x="0px" y="0px"
	 viewBox="0 0 111 29" enable-background="new 0 0 111 29" xml:space="preserve">
<linearGradient id="SVGID_1_" gradientUnits="userSpaceOnUse" x1="15.9468" y1="17.3609" x2="27.0433" y2="17.3609">
	<stop  offset="0" style="stop-color:#F68D1E"/>
	<stop  offset="1" style="stop-color:#D36227"/>
</linearGradient>
<path fill="url(#SVGID_1_)" d="M27.043,28.358l-6.461-5.283c0,0-4.538-5.204-4.629-8.979C15.851,9.8,16.835,4.284,20.478,7.16
	c2.68,2.116,2.345,8.206,2.625,14.931C23.241,25.411,27.043,28.358,27.043,28.358z"/>
<linearGradient id="SVGID_2_" gradientUnits="userSpaceOnUse" x1="27.9269" y1="14.0477" x2="15.5943" y2="13.9076">
	<stop  offset="0" style="stop-color:#F6921E"/>
	<stop  offset="1" style="stop-color:#F16522"/>
</linearGradient>
<path opacity="0.6" fill="url(#SVGID_2_)" d="M19.11,7.713c0,0-2.926,4.907-1.396,12.452"/>
<linearGradient id="SVGID_3_" gradientUnits="userSpaceOnUse" x1="80.7284" y1="19.0024" x2="107.7068" y2="19.0024">
	<stop  offset="0" style="stop-color:#4169B1"/>
	<stop  offset="1" style="stop-color:#325BA9"/>
</linearGradient>
<path fill="url(#SVGID_3_)" d="M87.808,12.835c-0.814-0.308-1.705-0.333-2.622-0.333h-3.195c-0.576,0-1.263,0.219-1.263,1.263
	v10.442c0,0.758,0.497,1.229,1.297,1.229c0.767,0,1.263-0.483,1.263-1.229V20.56h2.217c0.995,0,2.234,0,3.35-0.936
	c0.598-0.508,0.979-1.165,1.164-2.007c0.076-0.34,0.112-0.698,0.112-1.095C90.132,14.739,89.286,13.395,87.808,12.835z
	 M87.589,16.522c0,0.289-0.056,1.002-0.576,1.364c-0.297,0.212-0.606,0.301-1.752,0.301l-1.973-0.002V14.86h1.394
	c0.86,0,2.16,0,2.636,0.668C87.542,15.856,87.589,16.25,87.589,16.522z M94.302,15.511c-1.589,0-2.735,0.519-3.413,1.553
	c-0.158,0.257-0.423,0.757-0.423,1.223c0,0.521,0.331,1.129,1.263,1.129c0.938,0,1.109-0.638,1.163-0.886
	c0.132-0.394,0.299-0.829,1.41-0.829c1.276,0,1.276,0.695,1.276,0.956c0,0.1-0.009,0.148-0.005,0.156
	c-0.016,0.008-0.054,0.025-0.142,0.051c-0.134,0.045-0.471,0.118-0.974,0.221l-1.447,0.306c-0.872,0.177-2.913,0.593-2.913,2.964
	c0,1.882,1.325,3.146,3.298,3.146c0.676,0,1.559-0.14,2.345-0.711c0.1,0.234,0.366,0.604,1.068,0.644
	c0.314,0,1.054-0.107,1.144-1.103l0.002-5.087c0-0.87,0-1.855-0.686-2.663C96.646,15.862,95.676,15.511,94.302,15.511z
	 M95.563,21.014c-0.027,0.735-0.1,1.218-0.361,1.581c-0.054,0.072-0.553,0.702-1.471,0.702c-0.256,0-1.091-0.067-1.091-0.923
	c0-0.528,0.329-0.71,0.695-0.833c0.202-0.072,0.509-0.15,0.804-0.203l0.867-0.2C95.245,21.087,95.421,21.048,95.563,21.014z
	 M107.707,22.239c0,0.355-0.149,0.8-0.42,1.252c-0.761,1.332-2.053,2.012-3.836,2.012c-3.34,0-4.525-2.7-4.525-5.013
	c0-0.787,0.108-1.476,0.329-2.107c0.466-1.311,1.586-2.872,4.28-2.872c2.226,0,3.11,1.021,3.582,1.789
	c0.39,0.613,0.423,0.901,0.423,1.122c0,0.68-0.57,1.213-1.297,1.213c-0.767,0-1.036-0.561-1.232-0.97
	c-0.215-0.431-0.585-0.93-1.526-0.93c-1.804,0-1.999,1.88-1.999,2.688c0,1.288,0.347,2.823,1.999,2.823
	c1.203,0,1.535-0.71,1.778-1.229c0.104-0.28,0.354-0.956,1.165-0.956C106.922,21.06,107.707,21.38,107.707,22.239z"/>
<linearGradient id="SVGID_4_" gradientUnits="userSpaceOnUse" x1="28.5619" y1="20.3897" x2="79.2015" y2="20.3897">
	<stop  offset="0" style="stop-color:#6D6E70"/>
	<stop  offset="1" style="stop-color:#58595B"/>
</linearGradient>
<path fill="url(#SVGID_4_)" d="M32.868,12.501h-3.043c-0.803,0-1.263,0.46-1.263,1.263v10.307c0,0.779,0.484,1.263,1.263,1.263
	h2.673c1.312,0,3.508,0,5.079-1.571c1.074-1.094,1.666-2.859,1.666-4.972c0-1.391-0.273-3.338-1.576-4.714
	C36.286,12.623,34.539,12.501,32.868,12.501z M36.075,21.564c-0.789,1.353-1.936,1.413-4.249,1.413h-0.721V14.86h0.973
	c0.443,0,1.112,0,1.379,0.016c0.949,0.067,2.017,0.237,2.681,1.424c0.45,0.804,0.545,1.8,0.545,2.493
	C36.683,19.314,36.624,20.627,36.075,21.564z M48.83,20.171c0-1.12-0.347-2.273-0.933-3.089c-0.546-0.74-1.267-1.211-2.205-1.44
	c-0.363-0.087-0.768-0.131-1.203-0.131c-3.173,0-4.593,2.543-4.593,5.063c0,1.419,0.436,2.694,1.23,3.594
	c1.07,1.196,2.46,1.335,3.413,1.335c1.458,0,2.635-0.495,3.493-1.465c0.16-0.175,0.54-0.627,0.647-1.091
	c0.032-0.111,0.032-0.209,0.032-0.289c0-0.738-0.685-1.179-1.347-1.179c-0.625,0-0.845,0.372-1.099,0.802l-0.022,0.037
	c-0.256,0.398-0.606,0.943-1.704,0.943c-0.625,0-1.131-0.11-1.568-0.65c-0.261-0.319-0.425-0.711-0.502-1.212h5.13
	C48.347,21.401,48.83,20.918,48.83,20.171z M42.577,19.194c0.107-0.317,0.285-0.669,0.612-0.955
	c0.441-0.391,0.963-0.436,1.317-0.436c1.161,0,1.577,0.773,1.724,1.391H42.577z M56.953,22.374c0,1.026-0.463,1.924-1.27,2.462
	c-0.849,0.581-1.972,0.668-2.566,0.668c-1.174,0-2.157-0.306-2.844-0.885c-0.897-0.76-1.093-1.829-1.093-2.177
	c0-0.766,0.668-1.179,1.297-1.179c0.68,0,0.901,0.443,0.995,0.632l0.021,0.048l0.084,0.23c0.159,0.433,0.17,0.46,0.241,0.571
	c0.346,0.525,1.026,0.605,1.4,0.605c0.606,0,1.259-0.262,1.259-0.839c0-0.445-0.285-0.596-1.266-0.884l-1-0.293
	c-0.951-0.311-2.694-0.881-2.694-2.841c0-0.305,0.099-2.978,3.533-2.978c3.129,0,3.769,2.164,3.769,2.743
	c0,0.733-0.608,1.129-1.179,1.129c-0.663,0-0.885-0.43-1.143-0.928c-0.106-0.2-0.435-0.821-1.514-0.821
	c-0.422,0-0.625,0.096-0.708,0.153c-0.175,0.114-0.282,0.308-0.282,0.501c0,0.368,0.235,0.491,1.102,0.755l0.987,0.306
	C55.022,19.628,56.953,20.2,56.953,22.374z M60.3,16.791v7.415c0,0.202-0.048,0.409-0.134,0.581
	c-0.134,0.303-0.499,0.648-1.096,0.648c-0.734,0-1.246-0.506-1.246-1.229v-7.415c0-0.604,0.38-1.213,1.229-1.213
	C59.914,15.578,60.3,16.188,60.3,16.791z M60.468,13.849c0,0.823-0.582,1.398-1.415,1.398s-1.414-0.575-1.414-1.398
	c0-0.829,0.595-1.431,1.414-1.431C59.86,12.417,60.468,13.033,60.468,13.849z M68.588,15.595c-0.569,0-0.855,0.317-0.981,0.513
	c-0.15-0.106-0.331-0.209-0.551-0.308c-0.462-0.194-0.973-0.289-1.562-0.289c-1.979,0-3.438,1.104-4.005,3.042
	c-0.158,0.595-0.234,1.201-0.234,1.853c0,1.883,0.676,3.295,1.855,4.038c-0.039-0.003-0.079-0.005-0.121-0.005
	c-0.621,0-1.28,0.425-1.28,1.213c0,0.645,0.512,1.498,1.183,1.977c0.815,0.605,1.938,0.732,2.737,0.732
	c1.315,0,2.408-0.336,3.079-0.95c0.872-0.807,1.043-1.965,1.043-3.693v-7.012C69.75,16.032,69.294,15.595,68.588,15.595z
	 M65.729,26.121c-0.589,0-1.077-0.122-1.242-0.309c-0.074-0.085-0.124-0.181-0.264-0.462c-0.066-0.141-0.167-0.355-0.342-0.54
	c0.431,0.146,0.909,0.222,1.427,0.222c0.929,0,1.575-0.245,2.036-0.545C67.291,25.535,67.085,26.121,65.729,26.121z M66.987,22.039
	c-0.301,0.437-0.873,0.72-1.46,0.72c-0.54,0-1.012-0.228-1.303-0.635c-0.286-0.381-0.443-1.033-0.443-1.835
	c0-0.733,0.162-1.373,0.452-1.796c0.331-0.469,0.812-0.707,1.429-0.707c1.43,0,1.73,1.297,1.73,2.386
	C67.392,20.975,67.241,21.672,66.987,22.039z M79.201,19.448v4.759c0,0.747-0.489,1.229-1.247,1.229
	c-0.179,0-0.365-0.037-0.57-0.114l-0.054-0.024c-0.413-0.217-0.623-0.585-0.623-1.091v-3.968c0-0.617-0.016-0.891-0.026-1.055
	c-0.005-0.08-0.008-0.137-0.008-0.189c0-1.083-0.68-1.209-1.192-1.209c-1.266,0-1.666,0.968-1.791,1.544
	c-0.077,0.334-0.075,0.685-0.074,1.055l0.001,3.821c0,0.747-0.489,1.229-1.246,1.229c-0.179,0-0.365-0.037-0.57-0.114l-0.054-0.024
	c-0.622-0.328-0.622-0.902-0.622-1.091v-7.415c0-0.495,0.209-0.857,0.622-1.074c0.188-0.088,0.398-0.13,0.613-0.13
	c0.155,0,0.384,0.022,0.592,0.126c0.266,0.133,0.42,0.301,0.509,0.503c0.628-0.477,1.397-0.704,2.357-0.704
	c1.162,0,2.091,0.392,2.689,1.135C79.201,17.523,79.201,18.59,79.201,19.448z"/>
<linearGradient id="SVGID_5_" gradientUnits="userSpaceOnUse" x1="2.5" y1="13.9396" x2="27.1098" y2="13.9396">
	<stop  offset="0" style="stop-color:#4169B1"/>
	<stop  offset="1" style="stop-color:#325BA9"/>
</linearGradient>
<path fill="url(#SVGID_5_)" d="M27.11,26.439l-10.459-4.087c0,0-7.625-3.28-11.471-8.882C1.662,8.345,0.878-0.116,7.344,1.688
	c4.758,1.327,7.712,9.641,11.841,18.46C21.223,24.501,27.11,26.439,27.11,26.439z"/>
<linearGradient id="SVGID_6_" gradientUnits="userSpaceOnUse" x1="7.951" y1="11.268" x2="12.1554" y2="8.0096">
	<stop  offset="0" style="stop-color:#6FB4E3"/>
	<stop  offset="1" style="stop-color:#1B75BB"/>
</linearGradient>
<path opacity="0.6" fill="url(#SVGID_6_)" d="M3.401,6.891c0,0,0.886,5.644,6.885,10.47"/>
</svg>
