<svg xmlns="http://www.w3.org/2000/svg" viewBox="0 0 220.7 236.7"><circle opacity=".3" fill="#59AEE0" cx="110.6" cy="126.2" r="97.4"/><g stroke="#205182" stroke-width="2" stroke-linecap="round" stroke-linejoin="round" stroke-miterlimit="10"><path fill="#3773B1" d="M192.7 139.6L170 38.5H55.3L32.6 139.6H82v28.5h51.1v-28.5z"/><path fill="#989898" d="M75.2 48.6h77.2v48.8H75.2z"/><path fill="#CDCCCC" d="M68.3 68.3h90.8v48.8H68.3z"/><path fill="#E9E9E9" d="M58.6 90.8H169v62.4H58.6z"/><path fill="none" d="M58.6 90.8l55.2 24.4 55.1-24.4"/><path fill="#59AEE0" d="M126.2 139.6c0 7.5-6.1 13.6-13.6 13.6S99 147.1 99 139.6H32.6v56.9h160.1v-56.9h-66.5z"/></g><circle fill="#D04537" cx="174" cy="36.1" r="24.5"/><path fill="#FFF" stroke="#FFF" stroke-width="1.9874" stroke-miterlimit="10" d="M173.6 45.2V32.4h-4.4v-1.9c2.5-.1 4.3-1.5 4.7-3.4h2.4v18.2h-2.7z"/></svg>