<!-- Generator: Adobe Illustrator 19.0.1, SVG Export Plug-In  -->
<svg version="1.1" xmlns="http://www.w3.org/2000/svg" xmlns:xlink="http://www.w3.org/1999/xlink" xmlns:a="http://ns.adobe.com/AdobeSVGViewerExtensions/3.0/" x="0px" y="0px" width="119px" height="119px" viewBox="0 0 119 119" style="enable-background:new 0 0 119 119;" xml:space="preserve">
<style type="text/css">
	.st0{fill:#5DC1C3;}
	.st1{fill-rule:evenodd;clip-rule:evenodd;fill:#FFFFFF;}
</style>
<defs>
</defs>
<g id="Interface__x26__Layout_copy">
	<rect class="st0" width="119" height="119"/>
	<g id="interface_-_arrow_right_3_">
		<g>
			<path class="st1" d="M82.3,46.2c-0.7-0.7-1.9-0.7-2.6,0L59.3,68.4L39,46.2c-0.7-0.7-1.9-0.7-2.6,0c-0.7,0.7-0.7,1.9,0,2.6     L57.5,72c0.1,0.2,0.2,0.4,0.4,0.6c0.4,0.4,0.9,0.6,1.4,0.5c0.5,0,1-0.1,1.4-0.5c0.2-0.2,0.3-0.4,0.4-0.6l21.2-23.1     C83,48.1,83,47,82.3,46.2z"/>
		</g>
	</g>
</g>
</svg>