<?xml version="1.0" encoding="utf-8"?>
<!-- Generator: Adobe Illustrator 19.0.0, SVG Export Plug-In . SVG Version: 6.00 Build 0)  -->
<svg version="1.1" id="Capa_1" xmlns="http://www.w3.org/2000/svg" xmlns:xlink="http://www.w3.org/1999/xlink" x="0px" y="0px"
	 width="512px" height="512px" viewBox="-743 45 512 512" style="enable-background:new -743 45 512 512;" xml:space="preserve">
<style type="text/css">
	.st0{fill:#FFFFFF;}
</style>
<g>
	<g>
		<g>
			<path class="st0" d="M-304,230.9c-17-31.4-49.8-50.8-85.5-50.8c-16.1,0-32.1,4.1-46.3,11.8c-47.1,25.6-64.6,84.7-39,131.8
				c17,31.4,49.8,50.8,85.5,50.8c0,0,0,0,0,0c16.1,0,32.1-4.1,46.3-11.8c22.8-12.4,39.4-32.9,46.8-57.8S-291.6,253.8-304,230.9z
				 M-315.4,299.3c-5.9,19.8-19.1,36.1-37.2,45.9c-11.3,6.1-24,9.4-36.8,9.4c0,0,0,0,0,0c-28.4,0-54.4-15.5-67.9-40.4
				c-20.3-37.4-6.4-84.4,31-104.7c11.3-6.1,24-9.4,36.8-9.4c28.4,0,54.4,15.5,67.9,40.4C-311.7,258.6-309.5,279.5-315.4,299.3z"/>
		</g>
	</g>
</g>
<g>
	<g>
		<g>
			<path class="st0" d="M-365.7,214.4l-0.5-0.2c-5.2-1.9-10.9,0.7-12.8,5.9c-1.9,5.2,0.7,10.9,5.9,12.8l0.4,0.2
				c1.1,0.4,2.3,0.6,3.5,0.6c4.1,0,7.9-2.5,9.4-6.5C-357.9,222.1-360.5,216.4-365.7,214.4z"/>
		</g>
	</g>
</g>
<g>
	<g>
		<g>
			<path class="st0" d="M-330.3,245.3c-2-3.8-4.4-7.3-7.1-10.6c-3.5-4.3-9.8-4.9-14.1-1.4c-4.3,3.5-4.9,9.8-1.4,14.1
				c1.9,2.3,3.6,4.8,5,7.4c6.1,11.3,7.4,24.2,3.6,36.5c-1.6,5.3,1.3,10.9,6.6,12.5c1,0.3,2,0.4,3,0.4c4.3,0,8.2-2.8,9.6-7.1
				C-319.8,279.8-321.6,261.3-330.3,245.3z"/>
		</g>
	</g>
</g>
<g>
	<g>
		<g>
			<path class="st0" d="M-233.6,494.7l-68-125.2c16-15.2,27.8-34.3,34.2-56c9.6-32.6,6-67-10.2-96.8c-16.9-31.1-45.6-53.3-78.9-62.2
				c-25.8-36.4-61.8-63.2-102.7-77.7c-0.6-0.3-1.3-0.5-2-0.7c-21.9-7.5-45.2-11.5-69-11.5c-97.8,0-180.3,66.3-205.1,156.2
				c-0.2,0.5-0.3,1.1-0.4,1.6c-4.7,17.5-7.2,36-7.2,55c0,64,28.4,121.6,73.3,160.6c0.6,0.7,1.4,1.3,2.2,1.9
				c37.1,31.4,85,50.3,137.3,50.3c67.9,0,131.4-32.3,171.5-86.8l66.8,123c2.7,4.9,7.1,8.6,12.6,10.2c2,0.6,4,0.9,6,0.9
				c3.5,0,6.9-0.9,10-2.6l21.2-11.5C-231.8,517.8-228,504.9-233.6,494.7z M-498,399 M-676.4,401.7l0.2,1.5
				c-29.2-33.8-46.9-77.8-46.9-125.8c0-8.2,0.5-16.3,1.5-24.2l6.3-30.2c23.5-79.9,97.5-138.4,185-138.4c15,0,29.7,1.8,44,5.1
				l24.2,7.4c29.3,11.1,55.7,29.2,76.7,53.2c-1.4,0-2.8-0.1-4.2-0.1c-21,0-42,5.3-60.6,15.4c-29.9,16.2-51.6,43.1-61.3,75.7
				c-9.6,32.6-6,67,10.2,96.8c8.2,15,19.1,28,32,38.3l17.4,11.8c18.8,10.6,40.2,16.4,62.6,16.4c1.3,0,2.7,0,4-0.1
				c-36.4,41.4-89,65.6-144.9,65.6c-46.5,0-89.2-16.6-122.6-44.1 M-389.3,384.6c-39.4,0-75.5-21.5-94.3-56.1
				c-13.7-25.2-16.7-54.2-8.6-81.6c8.1-27.5,26.5-50.1,51.6-63.8c15.7-8.5,33.3-13,51.1-13c8.4,0,16.7,1,24.6,2.9
				c0.2,0,0.4,0.1,0.5,0.1c29.2,7,54.5,26,69.1,53.1c13.7,25.2,16.7,54.2,8.6,81.6c-6.1,20.5-17.8,38.3-33.8,51.7
				c-0.1,0.1-0.3,0.2-0.4,0.3c-5.4,4.4-11.2,8.4-17.4,11.8C-353.9,380.1-371.6,384.6-389.3,384.6z M-251.6,505.8l-21.2,11.5
				c-0.3,0.2-0.6,0.1-0.8,0.1s-0.5-0.2-0.7-0.5l-66.3-122c4.1-1.7,8.1-3.6,11.9-5.7c3.9-2.1,7.7-4.4,11.3-6.9l66.3,122
				C-250.8,504.8-251.1,505.5-251.6,505.8z"/>
		</g>
	</g>
</g>
<g>
	<g>
		<g>
			<path class="st0" d="M-668.5,182.9c-4.9-2.6-10.9-0.7-13.5,4.2l-0.4,0.8c-2.5,4.9-0.6,10.9,4.3,13.5c1.5,0.7,3,1.1,4.5,1.1
				c3.6,0,7.1-2,8.9-5.4l0.3-0.6C-661.7,191.5-663.6,185.5-668.5,182.9z"/>
		</g>
	</g>
</g>
<g>
	<g>
		<g>
			<path class="st0" d="M-582.8,117.1c-1.9-5.2-7.7-7.8-12.8-5.9c-26.1,9.6-49.4,26.1-67.4,47.6c-3.5,4.2-3,10.5,1.3,14.1
				c1.9,1.6,4.1,2.3,6.4,2.3c2.9,0,5.7-1.2,7.7-3.6c15.7-18.8,36.1-33.2,58.9-41.6C-583.5,128-580.9,122.2-582.8,117.1z"/>
		</g>
	</g>
</g>
<g>
	<path class="st0" d="M-485.2,356.2c-6.4,5.8-15.3,10.1-26.6,13.2c-9.6,2.6-19.7,4-30.1,4.3l-18.8-70.9c2.2-1,5.1-2.1,8.8-3.3
		c3.7-1.2,8.2-2.4,13.5-3.8c9.3-2.5,17.7-3.6,25.3-3.4c-0.6-4.9-0.9-9.9-0.9-14.9c0-0.4,0-0.8,0-1.2c-5.6,3.8-14,7.2-25.2,10.2
		c-4.8,1.3-9.3,2.3-13.5,3.1c-4.1,0.8-7.8,1.3-11.1,1.5l-17.7-66.5c6.3-3.7,13.7-6.6,22.2-8.9c15.8-4.2,28.8-3.8,38.9,1.1
		c6.9,3.4,12.1,8,15.6,13.8c3.3-7.9,7.4-15.3,12.1-22.2c-8.6-5.4-19.3-8-32.3-7.7c-9,0.2-20.4,2.1-34.4,5.9l-74.8,19.9l1.3,4.7
		l6.5-1.7c6.5-1.7,12-1.2,16.3,1.7c3.2,2.2,6.2,8.6,9.1,19.3l29.7,111.8c2.6,9.7,3.3,16.3,2.1,19.8c-1.9,5.4-6.5,9.1-13.7,11
		l-6.5,1.7l1.3,4.7l81.6-21.7c12.9-3.4,23.3-7,31.4-10.9C-478.6,363.4-482,359.9-485.2,356.2z"/>
</g>
<g>
	<line class="st0" x1="-604.4" y1="179.6" x2="-594.4" y2="219"/>
	
		<rect x="-619.7" y="187.3" transform="matrix(0.2467 0.9691 -0.9691 0.2467 -258.3574 731.0291)" class="st0" width="40.7" height="24"/>
</g>
<g>
	<line class="st0" x1="-557.8" y1="168.9" x2="-547.8" y2="208.3"/>
	
		<rect x="-573.1" y="176.6" transform="matrix(0.2467 0.9691 -0.9691 0.2467 -233.69 677.8007)" class="st0" width="40.7" height="24"/>
</g>
<g>
	<line class="st0" x1="-549.9" y1="383.8" x2="-539.9" y2="423.2"/>
	
		<rect x="-565.3" y="391.5" transform="matrix(0.2467 0.9691 -0.9691 0.2467 -19.44 832.0816)" class="st0" width="40.7" height="24"/>
</g>
<g>
	<line class="st0" x1="-503.4" y1="373.1" x2="-493.3" y2="412.5"/>
	
		<rect x="-518.7" y="380.8" transform="matrix(0.2467 0.9691 -0.9691 0.2467 5.2286 778.8527)" class="st0" width="40.7" height="24"/>
</g>
</svg>
