<?xml version="1.0" encoding="iso-8859-1"?>
<!-- Generator: Adobe Illustrator 19.0.0, SVG Export Plug-In . SVG Version: 6.00 Build 0)  -->
<svg version="1.1" id="Capa_1" xmlns="http://www.w3.org/2000/svg" xmlns:xlink="http://www.w3.org/1999/xlink" x="0px" y="0px"
	 viewBox="0 0 512.001 512.001" style="enable-background:new 0 0 512.001 512.001;" xml:space="preserve">
<g>
	<g>
		<path d="M511.985,368.43c-0.008-1.238-0.016-2.471-0.016-3.695c0-5.522-4.477-9.999-9.999-9.999h-44.029V106.336
			c0-13.957-11.355-25.313-25.312-25.313H79.373c-13.958,0-25.313,11.356-25.313,25.313v248.401H10.031
			c-5.522,0-9.999,4.476-9.999,9.999c0,1.225-0.008,2.457-0.016,3.695c-0.092,14.277-0.205,32.045,12.85,45.184
			c11.77,11.847,31.271,17.363,61.372,17.363h363.523c30.1,0,49.602-5.517,61.372-17.363
			C512.19,400.475,512.077,382.707,511.985,368.43z M74.057,106.336h0.001c0-2.881,2.435-5.315,5.315-5.315h353.256
			c2.881,0,5.314,2.436,5.314,5.315v248.401h-15.799V126.818c0-5.522-4.477-9.999-9.999-9.999H99.853
			c-5.521,0-9.999,4.476-9.999,9.999v227.919H74.057V106.336z M402.147,136.817v217.92H109.852v-217.92H402.147z M484.949,399.52
			c-7.556,7.602-23.432,11.46-47.186,11.46H74.239c-23.755,0-39.631-3.857-47.186-11.46c-5.962-6.001-6.93-14.949-7.042-24.786
			h471.981C491.879,384.571,490.911,393.519,484.949,399.52z"/>
	</g>
</g>
<g>
	<g>
		<path d="M243.616,159.984H142.38c-5.521,0-9.999,4.476-9.999,9.999v91.239c0,5.52,4.476,9.999,9.999,9.999h101.236
			c5.522,0,9.999-4.477,9.999-9.999v-91.239C253.615,164.461,249.139,159.984,243.616,159.984z M233.618,251.223h-81.239v-71.241
			h81.239V251.223z"/>
	</g>
</g>
<g>
	<g>
		<path d="M363.601,159.987h-71.863c-5.521,0-9.999,4.476-9.999,9.999c0,5.521,4.477,9.999,9.999,9.999h71.863
			c5.521,0,9.999-4.478,9.999-9.999C373.6,164.464,369.123,159.987,363.601,159.987z"/>
	</g>
</g>
<g>
	<g>
		<path d="M363.602,205.602h-71.863c-5.521,0-9.999,4.478-9.999,9.999c0,5.522,4.477,9.999,9.999,9.999h71.863
			c5.521,0,9.999-4.476,9.999-9.999C373.601,210.079,369.124,205.602,363.602,205.602z"/>
	</g>
</g>
<g>
	<g>
		<path d="M363.602,251.223h-71.863c-5.521,0-9.999,4.476-9.999,9.999c0,5.521,4.477,9.999,9.999,9.999h71.863
			c5.521,0,9.999-4.477,9.999-9.999C373.601,255.698,369.124,251.223,363.602,251.223z"/>
	</g>
</g>
<g>
	<g>
		<path d="M363.602,295.914H171.438c-5.521,0-9.999,4.477-9.999,9.999c0,5.522,4.477,9.999,9.999,9.999h192.164
			c5.521,0,9.999-4.476,9.999-9.999C373.601,300.392,369.124,295.914,363.602,295.914z"/>
	</g>
</g>
<g>
	<g>
		<path d="M143.084,295.914h-0.702c-5.522,0-9.999,4.477-9.999,9.999c0,5.522,4.476,9.999,9.999,9.999h0.702
			c5.521,0,9.999-4.476,9.999-9.999C153.083,300.392,148.605,295.914,143.084,295.914z"/>
	</g>
</g>
<g>
</g>
<g>
</g>
<g>
</g>
<g>
</g>
<g>
</g>
<g>
</g>
<g>
</g>
<g>
</g>
<g>
</g>
<g>
</g>
<g>
</g>
<g>
</g>
<g>
</g>
<g>
</g>
<g>
</g>
</svg>
