<?xml version="1.0" encoding="utf-8"?>
<!-- Generator: Adobe Illustrator 19.0.0, SVG Export Plug-In . SVG Version: 6.00 Build 0)  -->
<svg version="1.1" id="Layer_1" xmlns="http://www.w3.org/2000/svg" xmlns:xlink="http://www.w3.org/1999/xlink" x="0px" y="0px"
	 width="1920px" height="786px" viewBox="0 0 1920 786" style="enable-background:new 0 0 1920 786;" xml:space="preserve">
<style type="text/css">
	.st0{fill:none;stroke:url(#XMLID_122_);stroke-width:2;stroke-miterlimit:10;}
	.st1{fill:none;stroke:url(#XMLID_123_);stroke-width:2;stroke-miterlimit:10;}
	.st2{fill:none;stroke:url(#XMLID_124_);stroke-width:2;stroke-miterlimit:10;}
	.st3{opacity:0.2;fill:url(#XMLID_125_);}
	.st4{opacity:0.2;fill:url(#XMLID_126_);}
	.st5{fill:none;stroke:url(#XMLID_127_);stroke-width:2;stroke-miterlimit:10;}
	.st6{fill:none;stroke:url(#XMLID_128_);stroke-width:2;stroke-miterlimit:10;}
	.st7{fill:none;stroke:url(#XMLID_129_);stroke-width:2;stroke-miterlimit:10;}
	.st8{fill:none;stroke:url(#XMLID_130_);stroke-width:2;stroke-miterlimit:10;}
	.st9{fill:url(#XMLID_131_);}
	.st10{fill:url(#XMLID_132_);}
	.st11{fill:url(#XMLID_133_);}
	.st12{fill:url(#XMLID_134_);}
	.st13{fill:url(#XMLID_135_);}
	.st14{fill:url(#XMLID_136_);}
	.st15{fill:url(#XMLID_137_);}
	.st16{fill:url(#XMLID_138_);}
	.st17{fill:url(#XMLID_139_);}
	.st18{fill:url(#XMLID_140_);}
	.st19{fill:url(#XMLID_141_);}
	.st20{fill:url(#XMLID_142_);}
	.st21{fill:url(#XMLID_143_);}
	.st22{fill:url(#XMLID_144_);}
	.st23{fill:url(#XMLID_145_);}
	.st24{fill:url(#XMLID_146_);}
	.st25{fill:url(#XMLID_147_);}
	.st26{fill:url(#XMLID_148_);}
	.st27{fill:url(#XMLID_149_);}
	.st28{fill:url(#XMLID_150_);}
	.st29{fill:url(#XMLID_151_);}
	.st30{fill:url(#XMLID_152_);}
	.st31{fill:url(#XMLID_153_);}
	.st32{fill:url(#XMLID_154_);}
	.st33{fill:url(#XMLID_155_);}
	.st34{fill:url(#XMLID_156_);}
	.st35{fill:url(#XMLID_157_);}
	.st36{fill:url(#XMLID_158_);}
	.st37{fill:url(#XMLID_159_);}
	.st38{fill:url(#XMLID_160_);}
	.st39{fill:url(#XMLID_161_);}
	.st40{fill:url(#XMLID_162_);}
	.st41{fill:url(#XMLID_163_);}
	.st42{fill:url(#XMLID_164_);}
	.st43{fill:url(#XMLID_165_);}
	.st44{fill:url(#XMLID_166_);}
	.st45{fill:url(#XMLID_167_);}
	.st46{fill:url(#XMLID_168_);}
	.st47{fill:url(#XMLID_169_);}
	.st48{fill:url(#XMLID_170_);}
	.st49{fill:url(#XMLID_171_);}
	.st50{fill:url(#XMLID_172_);}
	.st51{fill:url(#XMLID_173_);}
	.st52{fill:none;stroke:url(#XMLID_174_);stroke-width:2;stroke-miterlimit:10;}
	.st53{fill:none;stroke:url(#XMLID_175_);stroke-width:2;stroke-miterlimit:10;}
	.st54{fill:url(#XMLID_176_);}
	.st55{fill:url(#XMLID_177_);}
	.st56{fill:none;stroke:url(#XMLID_178_);stroke-width:2;stroke-miterlimit:10;}
	.st57{fill:url(#XMLID_179_);}
	.st58{fill:url(#XMLID_180_);}
	.st59{fill:url(#XMLID_181_);}
	.st60{fill:url(#XMLID_182_);}
	.st61{fill:url(#XMLID_183_);}
	.st62{fill:url(#XMLID_184_);}
	.st63{fill:url(#XMLID_185_);}
	.st64{fill:url(#XMLID_186_);}
	.st65{fill:url(#XMLID_187_);}
	.st66{fill:url(#XMLID_188_);}
	.st67{fill:url(#XMLID_189_);}
	.st68{fill:url(#XMLID_190_);}
	.st69{fill:url(#XMLID_191_);}
	.st70{fill:url(#XMLID_192_);}
	.st71{fill:url(#XMLID_193_);}
	.st72{fill:url(#XMLID_194_);}
	.st73{fill:url(#XMLID_195_);}
	.st74{fill:url(#XMLID_196_);}
	.st75{fill:none;stroke:url(#XMLID_197_);stroke-width:2;stroke-miterlimit:10;}
	.st76{fill:url(#XMLID_198_);}
	.st77{fill:url(#XMLID_199_);}
	.st78{fill:url(#XMLID_200_);}
	.st79{fill:url(#XMLID_201_);}
	.st80{fill:url(#XMLID_202_);}
	.st81{fill:url(#XMLID_203_);}
	.st82{fill:url(#XMLID_204_);}
	.st83{fill:url(#XMLID_205_);}
	.st84{fill:#FFFFFF;}
	.st85{fill:url(#XMLID_206_);}
	.st86{fill:url(#XMLID_207_);}
	.st87{fill:url(#XMLID_208_);}
	.st88{fill:url(#XMLID_209_);}
	.st89{fill:url(#XMLID_210_);}
	.st90{fill:url(#XMLID_211_);}
	.st91{fill:url(#XMLID_212_);}
	.st92{fill:url(#XMLID_213_);}
	.st93{fill:url(#XMLID_214_);}
	.st94{fill:url(#XMLID_215_);}
	.st95{fill:url(#XMLID_216_);}
	.st96{fill:url(#XMLID_217_);}
	.st97{fill:url(#XMLID_218_);}
	.st98{fill:url(#XMLID_219_);}
	.st99{fill:url(#XMLID_220_);}
	.st100{fill:url(#XMLID_221_);}
	.st101{fill:url(#XMLID_222_);}
	.st102{fill:none;stroke:url(#XMLID_223_);stroke-miterlimit:10;}
</style>
<g id="XMLID_118_">
	<linearGradient id="XMLID_122_" gradientUnits="userSpaceOnUse" x1="-4.3784" y1="539.6705" x2="1922.7991" y2="539.6705">
		<stop  offset="0" style="stop-color:#F68D1E"/>
		<stop  offset="1" style="stop-color:#D36227"/>
	</linearGradient>
	<path id="XMLID_121_" class="st0" d="M-3.4,236.9c0,0,21.7,504,385.3,332.4c246-116,285.9-33.1,428.9,134.6
		c166.5,195.3,638.3,185,634.6-45.7s201.1-209.8,153.1-113.8c-48.1,96,133.1,243.7,164.5,88.6c31.4-155.1,95.6,38.5,159.6,24.8"/>
	<linearGradient id="XMLID_123_" gradientUnits="userSpaceOnUse" x1="-4.3781" y1="580.7149" x2="1926.8302" y2="580.7149">
		<stop  offset="0" style="stop-color:#4169B1"/>
		<stop  offset="1" style="stop-color:#325BA9"/>
	</linearGradient>
	<path id="XMLID_120_" class="st1" d="M-3.4,274.5c0,0,23.7,479.6,391.6,317.3c260.5-114.9,282.5-62.6,426.7,149.7
		s638.3,185,634.6-45.7c-3.7-230.8,201.1-209.8,153.1-113.8c-48.1,96,133.1,243.7,164.5,88.6c31.4-155.1,95.6,38.5,159.6,24.8"/>
	<linearGradient id="XMLID_124_" gradientUnits="userSpaceOnUse" x1="-4.378" y1="524.4834" x2="1926.8302" y2="524.4834">
		<stop  offset="0" style="stop-color:#4169B1"/>
		<stop  offset="1" style="stop-color:#325BA9"/>
	</linearGradient>
	<path id="XMLID_119_" class="st2" d="M-3.4,221.7c0,0,25.6,503.7,389.4,332.4c233.1-109.7,285.7-33.2,428.9,134.6
		c166.6,195.2,638.3,185,634.6-45.7c-3.7-230.8,201.1-209.8,153.1-113.8c-48.1,96,133.1,243.7,164.5,88.6
		c31.4-155.1,95.6,38.5,159.6,24.8"/>
</g>
<linearGradient id="XMLID_125_" gradientUnits="userSpaceOnUse" x1="-258.3783" y1="803.954" x2="1921.4907" y2="803.954">
	<stop  offset="0" style="stop-color:#F68D1E"/>
	<stop  offset="1" style="stop-color:#D36227"/>
</linearGradient>
<path id="XMLID_117_" class="st3" d="M-226,800.5c92.8-69.6,219.2-121.9,341.1-61.8s205,46,330.7-0.9s429.7,93.8,580,61.8
	c150.3-32,319.4-100.7,507.2-41.2s311.9-74.5,388.5-55.5v204H-258.4L-226,800.5z"/>
<linearGradient id="XMLID_126_" gradientUnits="userSpaceOnUse" x1="-46.9829" y1="831.1376" x2="1973.0171" y2="831.1376">
	<stop  offset="0" style="stop-color:#F68D1E"/>
	<stop  offset="1" style="stop-color:#D36227"/>
</linearGradient>
<path id="XMLID_116_" class="st4" d="M-17,827.7c86-69.6,203.1-121.9,316.1-61.8c112.9,60.2,190,46,306.5-0.9
	c116.5-46.9,398.2,93.8,537.5,61.8s296-100.7,470-41.2c174,59.5,289-74.5,360-55.5v204H-47L-17,827.7z"/>
<linearGradient id="XMLID_127_" gradientUnits="userSpaceOnUse" x1="70.5599" y1="678.3701" x2="109.1677" y2="678.3701">
	<stop  offset="0" style="stop-color:#F68D1E"/>
	<stop  offset="1" style="stop-color:#D36227"/>
</linearGradient>
<path id="XMLID_115_" class="st5" d="M108.5,715.1L87,697.5c0,0-15.1-17.3-15.4-29.9c-0.3-14.3,2.9-32.7,15.1-23.1
	c8.9,7,7.8,27.3,8.7,49.8C95.9,705.3,108.5,715.1,108.5,715.1z"/>
<linearGradient id="XMLID_128_" gradientUnits="userSpaceOnUse" x1="25.7532" y1="667.0496" x2="109.1203" y2="667.0496">
	<stop  offset="0" style="stop-color:#4169B1"/>
	<stop  offset="1" style="stop-color:#325BA9"/>
</linearGradient>
<path id="XMLID_114_" class="st6" d="M108.8,708.7l-34.8-13.6c0,0-25.4-10.9-38.2-29.6c-11.7-17.1-14.3-45.3,7.2-39.3
	c15.9,4.4,25.7,32.1,39.5,61.5C89.1,702.3,108.8,708.7,108.8,708.7z"/>
<linearGradient id="XMLID_129_" gradientUnits="userSpaceOnUse" x1="466.8501" y1="716.8239" x2="505.458" y2="716.8239">
	<stop  offset="0" style="stop-color:#F68D1E"/>
	<stop  offset="1" style="stop-color:#D36227"/>
</linearGradient>
<path id="XMLID_113_" class="st7" d="M504.8,753.6L483.3,736c0,0-15.1-17.3-15.4-29.9c-0.3-14.3,2.9-32.7,15.1-23.1
	c8.9,7,7.8,27.3,8.7,49.8C492.2,743.8,504.8,753.6,504.8,753.6z"/>
<linearGradient id="XMLID_130_" gradientUnits="userSpaceOnUse" x1="422.0434" y1="705.5035" x2="505.4106" y2="705.5035">
	<stop  offset="0" style="stop-color:#4169B1"/>
	<stop  offset="1" style="stop-color:#325BA9"/>
</linearGradient>
<path id="XMLID_112_" class="st8" d="M505,747.2l-34.8-13.6c0,0-25.4-10.9-38.2-29.6c-11.7-17.1-14.3-45.3,7.2-39.3
	c15.9,4.4,25.7,32.1,39.5,61.5C485.4,740.7,505,747.2,505,747.2z"/>
<linearGradient id="XMLID_131_" gradientUnits="userSpaceOnUse" x1="598.4725" y1="655.4984" x2="612.6152" y2="655.4984">
	<stop  offset="0" style="stop-color:#F68D1E"/>
	<stop  offset="1" style="stop-color:#D36227"/>
</linearGradient>
<path id="XMLID_111_" class="st9" d="M612.6,669.5l-8.2-6.7c0,0-5.8-6.6-5.9-11.4c-0.1-5.5,1.1-12.5,5.8-8.8c3.4,2.7,3,10.5,3.3,19
	C607.8,665.8,612.6,669.5,612.6,669.5z"/>
<linearGradient id="XMLID_132_" gradientUnits="userSpaceOnUse" x1="581.3342" y1="651.1379" x2="612.7" y2="651.1379">
	<stop  offset="0" style="stop-color:#5A7CBC"/>
	<stop  offset="1" style="stop-color:#325BA9"/>
</linearGradient>
<path id="XMLID_110_" class="st10" d="M612.7,667.1l-13.3-5.2c0,0-9.7-4.2-14.6-11.3c-4.5-6.5-5.5-17.3,2.8-15
	c6.1,1.7,9.8,12.3,15.1,23.5C605.2,664.6,612.7,667.1,612.7,667.1z"/>
<linearGradient id="XMLID_133_" gradientUnits="userSpaceOnUse" x1="199.8881" y1="706.9607" x2="325.8881" y2="772.294">
	<stop  offset="0" style="stop-color:#5A7CBC"/>
	<stop  offset="1" style="stop-color:#325BA9"/>
</linearGradient>
<polygon id="XMLID_109_" class="st11" points="344.6,698.3 344.6,677.1 319.5,667.1 319.5,698.3 148.6,698.3 148.6,785.3 
	353.4,785.3 353.4,698.3 "/>
<linearGradient id="XMLID_134_" gradientUnits="userSpaceOnUse" x1="210.4131" y1="675.4025" x2="210.4131" y2="710.1476">
	<stop  offset="0" style="stop-color:#5A7CBC"/>
	<stop  offset="1" style="stop-color:#325BA9"/>
</linearGradient>
<polygon id="XMLID_108_" class="st12" points="192.7,698.3 192.7,667.1 228.1,698.3 "/>
<linearGradient id="XMLID_135_" gradientUnits="userSpaceOnUse" x1="245.8751" y1="675.4025" x2="245.8751" y2="710.1476">
	<stop  offset="0" style="stop-color:#5A7CBC"/>
	<stop  offset="1" style="stop-color:#325BA9"/>
</linearGradient>
<polygon id="XMLID_107_" class="st13" points="228.1,698.3 228.1,667.1 263.6,698.3 "/>
<linearGradient id="XMLID_136_" gradientUnits="userSpaceOnUse" x1="281.3372" y1="675.4025" x2="281.3372" y2="710.1476">
	<stop  offset="0" style="stop-color:#5A7CBC"/>
	<stop  offset="1" style="stop-color:#325BA9"/>
</linearGradient>
<polygon id="XMLID_106_" class="st14" points="263.6,698.3 263.6,667.1 299.1,698.3 "/>
<linearGradient id="XMLID_137_" gradientUnits="userSpaceOnUse" x1="328.382" y1="640.3869" x2="358.3086" y2="640.3869">
	<stop  offset="0" style="stop-color:#5A7CBC"/>
	<stop  offset="1" style="stop-color:#325BA9"/>
</linearGradient>
<circle id="XMLID_105_" class="st15" cx="343.3" cy="640.4" r="15"/>
<linearGradient id="XMLID_138_" gradientUnits="userSpaceOnUse" x1="343.3453" y1="627.3657" x2="369.3876" y2="627.3657">
	<stop  offset="0" style="stop-color:#5A7CBC"/>
	<stop  offset="1" style="stop-color:#325BA9"/>
</linearGradient>
<circle id="XMLID_104_" class="st16" cx="356.4" cy="627.4" r="13"/>
<linearGradient id="XMLID_139_" gradientUnits="userSpaceOnUse" x1="369.3876" y1="620.8552" x2="382.4088" y2="620.8552">
	<stop  offset="0" style="stop-color:#5A7CBC"/>
	<stop  offset="1" style="stop-color:#325BA9"/>
</linearGradient>
<circle id="XMLID_103_" class="st17" cx="375.9" cy="620.9" r="6.5"/>
<linearGradient id="XMLID_140_" gradientUnits="userSpaceOnUse" x1="371.6198" y1="741.6074" x2="395.0676" y2="741.6074">
	<stop  offset="0" style="stop-color:#F68D1E"/>
	<stop  offset="1" style="stop-color:#D36227"/>
</linearGradient>
<polygon id="XMLID_102_" class="st18" points="391,732 391,724 385.3,724 385.3,719 382.9,719 382.9,724 377,724 377,732 371.6,732 
	371.6,764.2 395.1,764.2 395.1,732 "/>
<linearGradient id="XMLID_141_" gradientUnits="userSpaceOnUse" x1="377.0037" y1="747.9474" x2="389.6837" y2="747.9474">
	<stop  offset="0" style="stop-color:#4169B1"/>
	<stop  offset="1" style="stop-color:#325BA9"/>
</linearGradient>
<circle id="XMLID_101_" class="st19" cx="383.3" cy="747.9" r="6.3"/>
<linearGradient id="XMLID_142_" gradientUnits="userSpaceOnUse" x1="391.3487" y1="719.8961" x2="395.1199" y2="716.1249">
	<stop  offset="0" style="stop-color:#5A7CBC"/>
	<stop  offset="1" style="stop-color:#325BA9"/>
</linearGradient>
<circle id="XMLID_100_" class="st20" cx="393.2" cy="718" r="2.7"/>
<linearGradient id="XMLID_143_" gradientUnits="userSpaceOnUse" x1="395.6698" y1="721.3746" x2="403.8837" y2="713.1607">
	<stop  offset="0" style="stop-color:#5A7CBC"/>
	<stop  offset="1" style="stop-color:#325BA9"/>
</linearGradient>
<circle id="XMLID_99_" class="st21" cx="399.8" cy="717.3" r="5.8"/>
<linearGradient id="XMLID_144_" gradientUnits="userSpaceOnUse" x1="404.5515" y1="720.2496" x2="416.3366" y2="708.4645">
	<stop  offset="0" style="stop-color:#5A7CBC"/>
	<stop  offset="1" style="stop-color:#325BA9"/>
</linearGradient>
<circle id="XMLID_98_" class="st22" cx="410.4" cy="714.4" r="8.3"/>
<linearGradient id="XMLID_145_" gradientUnits="userSpaceOnUse" x1="551.9825" y1="649.9588" x2="528.5347" y2="649.9588">
	<stop  offset="0" style="stop-color:#4169B1"/>
	<stop  offset="1" style="stop-color:#325BA9"/>
</linearGradient>
<polygon id="XMLID_97_" class="st23" points="532.6,659.6 532.6,667.6 538.3,667.6 538.3,672.6 540.7,672.6 540.7,667.6 
	546.6,667.6 546.6,659.6 552,659.6 552,627.4 528.5,627.4 528.5,659.6 "/>
<linearGradient id="XMLID_146_" gradientUnits="userSpaceOnUse" x1="510.1746" y1="816.4844" x2="522.8547" y2="816.4844" gradientTransform="matrix(-1 0 0 -1 1056.7733 1460.1031)">
	<stop  offset="0" style="stop-color:#F68D1E"/>
	<stop  offset="1" style="stop-color:#D36227"/>
</linearGradient>
<circle id="XMLID_96_" class="st24" cx="540.3" cy="643.6" r="6.3"/>
<linearGradient id="XMLID_147_" gradientUnits="userSpaceOnUse" x1="532.2537" y1="671.6701" x2="528.4824" y2="675.4413">
	<stop  offset="0" style="stop-color:#F68D1E"/>
	<stop  offset="1" style="stop-color:#D36227"/>
</linearGradient>
<circle id="XMLID_95_" class="st25" cx="530.4" cy="673.6" r="2.7"/>
<linearGradient id="XMLID_148_" gradientUnits="userSpaceOnUse" x1="527.9325" y1="670.1917" x2="519.7186" y2="678.4055">
	<stop  offset="0" style="stop-color:#F68D1E"/>
	<stop  offset="1" style="stop-color:#D36227"/>
</linearGradient>
<circle id="XMLID_94_" class="st26" cx="523.8" cy="674.3" r="5.8"/>
<linearGradient id="XMLID_149_" gradientUnits="userSpaceOnUse" x1="519.0508" y1="671.3166" x2="507.2657" y2="683.1017">
	<stop  offset="0" style="stop-color:#F68D1E"/>
	<stop  offset="1" style="stop-color:#D36227"/>
</linearGradient>
<circle id="XMLID_93_" class="st27" cx="513.2" cy="677.2" r="8.3"/>
<g id="XMLID_88_">
	<linearGradient id="XMLID_150_" gradientUnits="userSpaceOnUse" x1="120.0487" y1="777.1141" x2="128.0352" y2="777.1141">
		<stop  offset="0" style="stop-color:#F68D1E"/>
		<stop  offset="1" style="stop-color:#D36227"/>
	</linearGradient>
	<polygon id="XMLID_92_" class="st28" points="128,786.2 120,786.2 124,768 125,768 	"/>
	<linearGradient id="XMLID_151_" gradientUnits="userSpaceOnUse" x1="124.9561" y1="769.2306" x2="142.5074" y2="769.2306">
		<stop  offset="0" style="stop-color:#5A7CBC"/>
		<stop  offset="1" style="stop-color:#325BA9"/>
	</linearGradient>
	<circle id="XMLID_91_" class="st29" cx="133.7" cy="769.2" r="8.8"/>
	<linearGradient id="XMLID_152_" gradientUnits="userSpaceOnUse" x1="106.4907" y1="769.2306" x2="124.042" y2="769.2306">
		<stop  offset="0" style="stop-color:#5A7CBC"/>
		<stop  offset="1" style="stop-color:#325BA9"/>
	</linearGradient>
	<circle id="XMLID_90_" class="st30" cx="115.3" cy="769.2" r="8.8"/>
	<linearGradient id="XMLID_153_" gradientUnits="userSpaceOnUse" x1="115.2664" y1="757.3222" x2="132.8176" y2="757.3222">
		<stop  offset="0" style="stop-color:#5A7CBC"/>
		<stop  offset="1" style="stop-color:#325BA9"/>
	</linearGradient>
	<circle id="XMLID_89_" class="st31" cx="124" cy="757.3" r="8.8"/>
</g>
<g id="XMLID_83_">
	<linearGradient id="XMLID_154_" gradientUnits="userSpaceOnUse" x1="463.3998" y1="777.1141" x2="471.3863" y2="777.1141">
		<stop  offset="0" style="stop-color:#F68D1E"/>
		<stop  offset="1" style="stop-color:#D36227"/>
	</linearGradient>
	<polygon id="XMLID_87_" class="st32" points="471.4,786.2 463.4,786.2 467.3,768 468.3,768 	"/>
	<linearGradient id="XMLID_155_" gradientUnits="userSpaceOnUse" x1="468.3072" y1="769.2306" x2="485.8584" y2="769.2306">
		<stop  offset="0" style="stop-color:#5A7CBC"/>
		<stop  offset="1" style="stop-color:#325BA9"/>
	</linearGradient>
	<circle id="XMLID_86_" class="st33" cx="477.1" cy="769.2" r="8.8"/>
	<linearGradient id="XMLID_156_" gradientUnits="userSpaceOnUse" x1="449.8418" y1="769.2306" x2="467.393" y2="769.2306">
		<stop  offset="0" style="stop-color:#5A7CBC"/>
		<stop  offset="1" style="stop-color:#325BA9"/>
	</linearGradient>
	<circle id="XMLID_85_" class="st34" cx="458.6" cy="769.2" r="8.8"/>
	<linearGradient id="XMLID_157_" gradientUnits="userSpaceOnUse" x1="458.6174" y1="757.3222" x2="476.1687" y2="757.3222">
		<stop  offset="0" style="stop-color:#5A7CBC"/>
		<stop  offset="1" style="stop-color:#325BA9"/>
	</linearGradient>
	<circle id="XMLID_84_" class="st35" cx="467.4" cy="757.3" r="8.8"/>
</g>
<g id="XMLID_78_">
	<linearGradient id="XMLID_158_" gradientUnits="userSpaceOnUse" x1="1004.2524" y1="767.636" x2="1020.5795" y2="767.636">
		<stop  offset="0" style="stop-color:#F68D1E"/>
		<stop  offset="1" style="stop-color:#D36227"/>
	</linearGradient>
	<polygon id="XMLID_82_" class="st36" points="1020.6,786.2 1004.3,786.2 1012.2,749.1 1014.3,749.1 	"/>
	<linearGradient id="XMLID_159_" gradientUnits="userSpaceOnUse" x1="1014.2847" y1="751.5196" x2="1050.1652" y2="751.5196">
		<stop  offset="0" style="stop-color:#5A7CBC"/>
		<stop  offset="1" style="stop-color:#325BA9"/>
	</linearGradient>
	<circle id="XMLID_81_" class="st37" cx="1032.2" cy="751.5" r="17.9"/>
	<linearGradient id="XMLID_160_" gradientUnits="userSpaceOnUse" x1="976.5356" y1="751.5196" x2="1012.416" y2="751.5196">
		<stop  offset="0" style="stop-color:#5A7CBC"/>
		<stop  offset="1" style="stop-color:#325BA9"/>
	</linearGradient>
	<circle id="XMLID_80_" class="st38" cx="994.5" cy="751.5" r="17.9"/>
	<linearGradient id="XMLID_161_" gradientUnits="userSpaceOnUse" x1="994.4758" y1="727.175" x2="1030.3562" y2="727.175">
		<stop  offset="0" style="stop-color:#5A7CBC"/>
		<stop  offset="1" style="stop-color:#325BA9"/>
	</linearGradient>
	<circle id="XMLID_79_" class="st39" cx="1012.4" cy="727.2" r="17.9"/>
</g>
<g id="XMLID_73_">
	<linearGradient id="XMLID_162_" gradientUnits="userSpaceOnUse" x1="1223.6111" y1="774.9094" x2="1233.5377" y2="774.9094">
		<stop  offset="0" style="stop-color:#F68D1E"/>
		<stop  offset="1" style="stop-color:#D36227"/>
	</linearGradient>
	<polygon id="XMLID_77_" class="st40" points="1233.5,786.2 1223.6,786.2 1228.5,763.6 1229.7,763.6 	"/>
	<linearGradient id="XMLID_163_" gradientUnits="userSpaceOnUse" x1="1229.7106" y1="765.111" x2="1251.5253" y2="765.111">
		<stop  offset="0" style="stop-color:#5A7CBC"/>
		<stop  offset="1" style="stop-color:#325BA9"/>
	</linearGradient>
	<circle id="XMLID_76_" class="st41" cx="1240.6" cy="765.1" r="10.9"/>
	<linearGradient id="XMLID_164_" gradientUnits="userSpaceOnUse" x1="1206.7598" y1="765.111" x2="1228.5745" y2="765.111">
		<stop  offset="0" style="stop-color:#5A7CBC"/>
		<stop  offset="1" style="stop-color:#325BA9"/>
	</linearGradient>
	<circle id="XMLID_75_" class="st42" cx="1217.7" cy="765.1" r="10.9"/>
	<linearGradient id="XMLID_165_" gradientUnits="userSpaceOnUse" x1="1217.6671" y1="750.3099" x2="1239.4817" y2="750.3099">
		<stop  offset="0" style="stop-color:#5A7CBC"/>
		<stop  offset="1" style="stop-color:#325BA9"/>
	</linearGradient>
	<circle id="XMLID_74_" class="st43" cx="1228.6" cy="750.3" r="10.9"/>
</g>
<g id="XMLID_68_">
	<linearGradient id="XMLID_166_" gradientUnits="userSpaceOnUse" x1="1614.361" y1="778.478" x2="1621.1472" y2="778.478">
		<stop  offset="0" style="stop-color:#F68D1E"/>
		<stop  offset="1" style="stop-color:#D36227"/>
	</linearGradient>
	<polygon id="XMLID_72_" class="st44" points="1621.1,786.2 1614.4,786.2 1617.7,770.8 1618.5,770.8 	"/>
	<linearGradient id="XMLID_167_" gradientUnits="userSpaceOnUse" x1="1618.5309" y1="771.7792" x2="1633.4446" y2="771.7792">
		<stop  offset="0" style="stop-color:#5A7CBC"/>
		<stop  offset="1" style="stop-color:#325BA9"/>
	</linearGradient>
	<circle id="XMLID_71_" class="st45" cx="1626" cy="771.8" r="7.5"/>
	<linearGradient id="XMLID_168_" gradientUnits="userSpaceOnUse" x1="1602.8405" y1="771.7792" x2="1617.7542" y2="771.7792">
		<stop  offset="0" style="stop-color:#5A7CBC"/>
		<stop  offset="1" style="stop-color:#325BA9"/>
	</linearGradient>
	<circle id="XMLID_70_" class="st46" cx="1610.3" cy="771.8" r="7.5"/>
	<linearGradient id="XMLID_169_" gradientUnits="userSpaceOnUse" x1="1610.2972" y1="761.6605" x2="1625.2109" y2="761.6605">
		<stop  offset="0" style="stop-color:#5A7CBC"/>
		<stop  offset="1" style="stop-color:#325BA9"/>
	</linearGradient>
	<circle id="XMLID_69_" class="st47" cx="1617.8" cy="761.7" r="7.5"/>
</g>
<g id="XMLID_63_">
	<linearGradient id="XMLID_170_" gradientUnits="userSpaceOnUse" x1="1671.3416" y1="782.6956" x2="1675.0454" y2="782.6956">
		<stop  offset="0" style="stop-color:#F68D1E"/>
		<stop  offset="1" style="stop-color:#D36227"/>
	</linearGradient>
	<polygon id="XMLID_67_" class="st48" points="1675,786.9 1671.3,786.9 1673.2,778.5 1673.6,778.5 	"/>
	<linearGradient id="XMLID_171_" gradientUnits="userSpaceOnUse" x1="1673.6174" y1="779.0394" x2="1681.7573" y2="779.0394">
		<stop  offset="0" style="stop-color:#5A7CBC"/>
		<stop  offset="1" style="stop-color:#325BA9"/>
	</linearGradient>
	<circle id="XMLID_66_" class="st49" cx="1677.7" cy="779" r="4.1"/>
	<linearGradient id="XMLID_172_" gradientUnits="userSpaceOnUse" x1="1665.0536" y1="779.0394" x2="1673.1935" y2="779.0394">
		<stop  offset="0" style="stop-color:#5A7CBC"/>
		<stop  offset="1" style="stop-color:#325BA9"/>
	</linearGradient>
	<circle id="XMLID_65_" class="st50" cx="1669.1" cy="779" r="4.1"/>
	<linearGradient id="XMLID_173_" gradientUnits="userSpaceOnUse" x1="1669.1235" y1="773.5166" x2="1677.2634" y2="773.5166">
		<stop  offset="0" style="stop-color:#5A7CBC"/>
		<stop  offset="1" style="stop-color:#325BA9"/>
	</linearGradient>
	<circle id="XMLID_64_" class="st51" cx="1673.2" cy="773.5" r="4.1"/>
</g>
<linearGradient id="XMLID_174_" gradientUnits="userSpaceOnUse" x1="564.0171" y1="652.3608" x2="630.0171" y2="652.3608">
	<stop  offset="0" style="stop-color:#4169B1"/>
	<stop  offset="1" style="stop-color:#325BA9"/>
</linearGradient>
<rect id="XMLID_62_" x="565" y="629.4" class="st52" width="64" height="46"/>
<linearGradient id="XMLID_175_" gradientUnits="userSpaceOnUse" x1="564.0171" y1="702.1721" x2="700.5822" y2="702.1721">
	<stop  offset="0" style="stop-color:#4169B1"/>
	<stop  offset="1" style="stop-color:#325BA9"/>
</linearGradient>
<rect id="XMLID_61_" x="565" y="683.2" class="st53" width="134.6" height="38"/>
<g id="XMLID_58_">
	<linearGradient id="XMLID_176_" gradientUnits="userSpaceOnUse" x1="649.656" y1="653.5978" x2="655.2317" y2="653.5978">
		<stop  offset="0" style="stop-color:#F68D1E"/>
		<stop  offset="1" style="stop-color:#D36227"/>
	</linearGradient>
	<path id="XMLID_60_" class="st54" d="M655.2,659.1l-3.2-2.7c0,0-2.3-2.6-2.3-4.5c-0.1-2.2,0.4-4.9,2.3-3.5c1.3,1.1,1.2,4.1,1.3,7.5
		C653.3,657.6,655.2,659.1,655.2,659.1z"/>
	<linearGradient id="XMLID_177_" gradientUnits="userSpaceOnUse" x1="642.8993" y1="651.8787" x2="655.2651" y2="651.8787">
		<stop  offset="0" style="stop-color:#5A7CBC"/>
		<stop  offset="1" style="stop-color:#325BA9"/>
	</linearGradient>
	<path id="XMLID_59_" class="st55" d="M655.3,658.2l-5.3-2.1c0,0-3.8-1.6-5.8-4.5c-1.8-2.6-2.2-6.8,1.1-5.9c2.4,0.7,3.9,4.8,5.9,9.3
		C652.3,657.2,655.3,658.2,655.3,658.2z"/>
</g>
<linearGradient id="XMLID_178_" gradientUnits="userSpaceOnUse" x1="634.5822" y1="652.3608" x2="700.5822" y2="652.3608">
	<stop  offset="0" style="stop-color:#4169B1"/>
	<stop  offset="1" style="stop-color:#325BA9"/>
</linearGradient>
<rect id="XMLID_57_" x="635.6" y="629.4" class="st56" width="64" height="46"/>
<linearGradient id="XMLID_179_" gradientUnits="userSpaceOnUse" x1="667.5822" y1="645.7205" x2="692.8324" y2="645.7205">
	<stop  offset="0" style="stop-color:#4169B1"/>
	<stop  offset="1" style="stop-color:#325BA9"/>
</linearGradient>
<rect id="XMLID_56_" x="667.6" y="644.9" class="st57" width="25.3" height="1.7"/>
<linearGradient id="XMLID_180_" gradientUnits="userSpaceOnUse" x1="685.0171" y1="650.5978" x2="692.8324" y2="650.5978">
	<stop  offset="0" style="stop-color:#F68D1E"/>
	<stop  offset="1" style="stop-color:#D36227"/>
</linearGradient>
<rect id="XMLID_55_" x="685" y="649.8" class="st58" width="7.8" height="1.7"/>
<linearGradient id="XMLID_181_" gradientUnits="userSpaceOnUse" x1="569.6837" y1="690.2358" x2="576.6837" y2="690.2358">
	<stop  offset="0" style="stop-color:#5A7CBC"/>
	<stop  offset="1" style="stop-color:#325BA9"/>
</linearGradient>
<rect id="XMLID_54_" x="569.7" y="686.7" class="st59" width="7" height="7"/>
<linearGradient id="XMLID_182_" gradientUnits="userSpaceOnUse" x1="569.6837" y1="698.3503" x2="576.6837" y2="698.3503">
	<stop  offset="0" style="stop-color:#F68D1E"/>
	<stop  offset="1" style="stop-color:#D36227"/>
</linearGradient>
<rect id="XMLID_53_" x="569.7" y="694.9" class="st60" width="7" height="7"/>
<linearGradient id="XMLID_183_" gradientUnits="userSpaceOnUse" x1="569.6837" y1="706.4649" x2="576.6837" y2="706.4649">
	<stop  offset="0" style="stop-color:#5A7CBC"/>
	<stop  offset="1" style="stop-color:#325BA9"/>
</linearGradient>
<rect id="XMLID_52_" x="569.7" y="703" class="st61" width="7" height="7"/>
<linearGradient id="XMLID_184_" gradientUnits="userSpaceOnUse" x1="569.6837" y1="714.5794" x2="576.6837" y2="714.5794">
	<stop  offset="0" style="stop-color:#F68D1E"/>
	<stop  offset="1" style="stop-color:#D36227"/>
</linearGradient>
<rect id="XMLID_51_" x="569.7" y="711.1" class="st62" width="7" height="7"/>
<g id="XMLID_44_">
	<linearGradient id="XMLID_185_" gradientUnits="userSpaceOnUse" x1="114.918" y1="628.9771" x2="124.0207" y2="628.9771">
		<stop  offset="0" style="stop-color:#5A7CBC"/>
		<stop  offset="1" style="stop-color:#325BA9"/>
	</linearGradient>
	<path id="XMLID_50_" class="st63" d="M124,628c-4.2-1.4-7.1-1.9-8.7-2.6c-1.7-0.6,2.9,4.5,2.7,7.2c0,0,2.4-3.7,6-3.6v-0.6"/>
	<linearGradient id="XMLID_186_" gradientUnits="userSpaceOnUse" x1="129.0153" y1="616.7531" x2="147.755" y2="616.7531">
		<stop  offset="0" style="stop-color:#F68D1E"/>
		<stop  offset="1" style="stop-color:#D36227"/>
	</linearGradient>
	<path id="XMLID_49_" class="st64" d="M130.3,606.7c0,0,3.3,17.4,17.4,17.4C147.8,624.2,123.2,636.8,130.3,606.7z"/>
	<linearGradient id="XMLID_187_" gradientUnits="userSpaceOnUse" x1="122.9327" y1="627.694" x2="146.6356" y2="627.694">
		<stop  offset="0" style="stop-color:#5A7CBC"/>
		<stop  offset="1" style="stop-color:#325BA9"/>
	</linearGradient>
	<ellipse id="XMLID_48_" class="st65" cx="134.8" cy="627.7" rx="11.9" ry="7.2"/>
	
		<linearGradient id="XMLID_188_" gradientUnits="userSpaceOnUse" x1="53.8066" y1="330.1907" x2="60.0989" y2="330.1907" gradientTransform="matrix(0.6536 -0.2991 0.2686 0.587 26.3858 448.7783)">
		<stop  offset="0" style="stop-color:#F68D1E"/>
		<stop  offset="1" style="stop-color:#D36227"/>
	</linearGradient>
	<polygon id="XMLID_47_" class="st66" points="150.4,624.7 155,626.1 150.9,628 	"/>
	<linearGradient id="XMLID_189_" gradientUnits="userSpaceOnUse" x1="142.7715" y1="626.9794" x2="151.6566" y2="626.9794">
		<stop  offset="0" style="stop-color:#5A7CBC"/>
		<stop  offset="1" style="stop-color:#325BA9"/>
	</linearGradient>
	<circle id="XMLID_46_" class="st67" cx="147.2" cy="627" r="4.4"/>
	<linearGradient id="XMLID_190_" gradientUnits="userSpaceOnUse" x1="123.5386" y1="618.9664" x2="142.2783" y2="618.9664">
		<stop  offset="0" style="stop-color:#F68D1E"/>
		<stop  offset="1" style="stop-color:#D36227"/>
	</linearGradient>
	<path id="XMLID_45_" class="st68" d="M124.8,608.9c0,0,3.3,17.4,17.4,17.4C142.3,626.4,117.7,639,124.8,608.9z"/>
</g>
<g id="XMLID_37_">
	
		<linearGradient id="XMLID_191_" gradientUnits="userSpaceOnUse" x1="1543.5892" y1="732.9639" x2="1552.6919" y2="732.9639" gradientTransform="matrix(-1 0 0 1 3127.3176 0)">
		<stop  offset="0" style="stop-color:#5A7CBC"/>
		<stop  offset="1" style="stop-color:#325BA9"/>
	</linearGradient>
	<path id="XMLID_43_" class="st69" d="M1574.6,732c4.2-1.4,7.1-1.9,8.7-2.6s-2.9,4.5-2.7,7.2c0,0-2.4-3.7-6-3.6v-0.6"/>
	
		<linearGradient id="XMLID_192_" gradientUnits="userSpaceOnUse" x1="1557.6865" y1="720.7398" x2="1576.4261" y2="720.7398" gradientTransform="matrix(-1 0 0 1 3127.3176 0)">
		<stop  offset="0" style="stop-color:#F68D1E"/>
		<stop  offset="1" style="stop-color:#D36227"/>
	</linearGradient>
	<path id="XMLID_42_" class="st70" d="M1568.3,710.7c0,0-3.3,17.4-17.4,17.4C1550.9,728.1,1575.5,740.8,1568.3,710.7z"/>
	
		<linearGradient id="XMLID_193_" gradientUnits="userSpaceOnUse" x1="1551.6039" y1="731.6807" x2="1575.3069" y2="731.6807" gradientTransform="matrix(-1 0 0 1 3127.3176 0)">
		<stop  offset="0" style="stop-color:#5A7CBC"/>
		<stop  offset="1" style="stop-color:#325BA9"/>
	</linearGradient>
	<ellipse id="XMLID_41_" class="st71" cx="1563.9" cy="731.7" rx="11.9" ry="7.2"/>
	
		<linearGradient id="XMLID_194_" gradientUnits="userSpaceOnUse" x1="1801.0303" y1="1397.5283" x2="1807.3225" y2="1397.5283" gradientTransform="matrix(-0.6536 -0.2991 -0.2686 0.587 3100.9319 448.7783)">
		<stop  offset="0" style="stop-color:#F68D1E"/>
		<stop  offset="1" style="stop-color:#D36227"/>
	</linearGradient>
	<polygon id="XMLID_40_" class="st72" points="1548.2,728.6 1543.6,730.1 1547.7,732 	"/>
	
		<linearGradient id="XMLID_195_" gradientUnits="userSpaceOnUse" x1="1571.4427" y1="730.9661" x2="1580.3279" y2="730.9661" gradientTransform="matrix(-1 0 0 1 3127.3176 0)">
		<stop  offset="0" style="stop-color:#5A7CBC"/>
		<stop  offset="1" style="stop-color:#325BA9"/>
	</linearGradient>
	<circle id="XMLID_39_" class="st73" cx="1551.4" cy="731" r="4.4"/>
	
		<linearGradient id="XMLID_196_" gradientUnits="userSpaceOnUse" x1="1552.2098" y1="722.9531" x2="1570.9495" y2="722.9531" gradientTransform="matrix(-1 0 0 1 3127.3176 0)">
		<stop  offset="0" style="stop-color:#F68D1E"/>
		<stop  offset="1" style="stop-color:#D36227"/>
	</linearGradient>
	<path id="XMLID_38_" class="st74" d="M1573.8,712.9c0,0-3.3,17.4-17.4,17.4C1556.4,730.4,1580.9,743,1573.8,712.9z"/>
</g>
<linearGradient id="XMLID_197_" gradientUnits="userSpaceOnUse" x1="1102.2083" y1="725.0599" x2="1126.236" y2="725.0599">
	<stop  offset="0" style="stop-color:#4169B1"/>
	<stop  offset="1" style="stop-color:#325BA9"/>
</linearGradient>
<polyline id="XMLID_36_" class="st75" points="1103.1,737.4 1113.8,714.5 1125.4,736.7 "/>
<g id="XMLID_29_">
	<linearGradient id="XMLID_198_" gradientUnits="userSpaceOnUse" x1="1095.1001" y1="709.5306" x2="1104.2028" y2="709.5306">
		<stop  offset="0" style="stop-color:#5A7CBC"/>
		<stop  offset="1" style="stop-color:#325BA9"/>
	</linearGradient>
	<path id="XMLID_35_" class="st76" d="M1104.2,708.5c-4.2-1.4-7.1-1.9-8.7-2.6c-1.7-0.6,2.9,4.5,2.7,7.2c0,0,2.4-3.7,6-3.6V709"/>
	<linearGradient id="XMLID_199_" gradientUnits="userSpaceOnUse" x1="1109.1974" y1="697.3065" x2="1127.9371" y2="697.3065">
		<stop  offset="0" style="stop-color:#F68D1E"/>
		<stop  offset="1" style="stop-color:#D36227"/>
	</linearGradient>
	<path id="XMLID_34_" class="st77" d="M1110.5,687.3c0,0,3.3,17.4,17.4,17.4C1127.9,704.7,1103.4,717.3,1110.5,687.3z"/>
	<linearGradient id="XMLID_200_" gradientUnits="userSpaceOnUse" x1="1103.1149" y1="708.2474" x2="1126.8177" y2="708.2474">
		<stop  offset="0" style="stop-color:#5A7CBC"/>
		<stop  offset="1" style="stop-color:#325BA9"/>
	</linearGradient>
	<ellipse id="XMLID_33_" class="st78" cx="1115" cy="708.2" rx="11.9" ry="7.2"/>
	
		<linearGradient id="XMLID_201_" gradientUnits="userSpaceOnUse" x1="1247.2095" y1="1075.4434" x2="1253.5017" y2="1075.4434" gradientTransform="matrix(0.6536 -0.2991 0.2686 0.587 26.3858 448.7783)">
		<stop  offset="0" style="stop-color:#F68D1E"/>
		<stop  offset="1" style="stop-color:#D36227"/>
	</linearGradient>
	<polygon id="XMLID_32_" class="st79" points="1130.6,705.2 1135.2,706.6 1131.1,708.5 	"/>
	<linearGradient id="XMLID_202_" gradientUnits="userSpaceOnUse" x1="1122.9537" y1="707.5329" x2="1131.8387" y2="707.5329">
		<stop  offset="0" style="stop-color:#5A7CBC"/>
		<stop  offset="1" style="stop-color:#325BA9"/>
	</linearGradient>
	<circle id="XMLID_31_" class="st80" cx="1127.4" cy="707.5" r="4.4"/>
	<linearGradient id="XMLID_203_" gradientUnits="userSpaceOnUse" x1="1103.7207" y1="699.5198" x2="1122.4603" y2="699.5198">
		<stop  offset="0" style="stop-color:#F68D1E"/>
		<stop  offset="1" style="stop-color:#D36227"/>
	</linearGradient>
	<path id="XMLID_30_" class="st81" d="M1105,689.5c0,0,3.3,17.4,17.4,17.4C1122.5,706.9,1097.9,719.5,1105,689.5z"/>
</g>
<linearGradient id="XMLID_204_" gradientUnits="userSpaceOnUse" x1="1100.1475" y1="746.9581" x2="1127.8561" y2="746.9581">
	<stop  offset="0" style="stop-color:#F68D1E"/>
	<stop  offset="1" style="stop-color:#D36227"/>
</linearGradient>
<rect id="XMLID_28_" x="1100.1" y="735.5" class="st82" width="27.7" height="22.9"/>
<linearGradient id="XMLID_205_" gradientUnits="userSpaceOnUse" x1="1103.4834" y1="745.3168" x2="1124.2159" y2="745.3168">
	<stop  offset="0" style="stop-color:#5A7CBC"/>
	<stop  offset="1" style="stop-color:#325BA9"/>
</linearGradient>
<rect id="XMLID_27_" x="1103.5" y="738.7" class="st83" width="20.7" height="13.1"/>
<g id="XMLID_24_">
	<path id="XMLID_26_" class="st84" d="M1117.8,749.4l-2.4-1.9c0,0-1.7-1.9-1.7-3.3c0-1.6,0.3-3.6,1.7-2.6c1,0.8,0.9,3,1,5.5
		C1116.4,748.3,1117.8,749.4,1117.8,749.4z"/>
	<path id="XMLID_25_" class="st84" d="M1117.9,748.7l-3.9-1.5c0,0-2.8-1.2-4.2-3.3c-1.3-1.9-1.6-5,0.8-4.3c1.8,0.5,2.8,3.6,4.4,6.8
		C1115.7,748,1117.9,748.7,1117.9,748.7z"/>
</g>
<g id="XMLID_18_">
	<linearGradient id="XMLID_206_" gradientUnits="userSpaceOnUse" x1="1035.6824" y1="724.8046" x2="1039.8099" y2="724.8046">
		<stop  offset="0" style="stop-color:#F68D1E"/>
		<stop  offset="1" style="stop-color:#D36227"/>
	</linearGradient>
	<circle id="XMLID_23_" class="st85" cx="1037.7" cy="724.8" r="2.1"/>
	<linearGradient id="XMLID_207_" gradientUnits="userSpaceOnUse" x1="1042.9652" y1="724.8046" x2="1047.0927" y2="724.8046">
		<stop  offset="0" style="stop-color:#F68D1E"/>
		<stop  offset="1" style="stop-color:#D36227"/>
	</linearGradient>
	<circle id="XMLID_22_" class="st86" cx="1045" cy="724.8" r="2.1"/>
	<linearGradient id="XMLID_208_" gradientUnits="userSpaceOnUse" x1="1038.5537" y1="719.6453" x2="1039.8099" y2="719.6453">
		<stop  offset="0" style="stop-color:#F68D1E"/>
		<stop  offset="1" style="stop-color:#D36227"/>
	</linearGradient>
	<rect id="XMLID_21_" x="1038.6" y="714.5" class="st87" width="1.3" height="10.3"/>
	<linearGradient id="XMLID_209_" gradientUnits="userSpaceOnUse" x1="1045.9263" y1="719.6453" x2="1047.1824" y2="719.6453">
		<stop  offset="0" style="stop-color:#F68D1E"/>
		<stop  offset="1" style="stop-color:#D36227"/>
	</linearGradient>
	<rect id="XMLID_20_" x="1045.9" y="714.5" class="st88" width="1.3" height="10.3"/>
	<linearGradient id="XMLID_210_" gradientUnits="userSpaceOnUse" x1="1038.5537" y1="715.2037" x2="1047.1824" y2="715.2037">
		<stop  offset="0" style="stop-color:#F68D1E"/>
		<stop  offset="1" style="stop-color:#D36227"/>
	</linearGradient>
	<rect id="XMLID_19_" x="1038.6" y="714.5" class="st89" width="8.6" height="1.4"/>
</g>
<g id="XMLID_12_">
	<linearGradient id="XMLID_211_" gradientUnits="userSpaceOnUse" x1="1028.8331" y1="704.656" x2="1031.2678" y2="704.656">
		<stop  offset="0" style="stop-color:#F68D1E"/>
		<stop  offset="1" style="stop-color:#D36227"/>
	</linearGradient>
	<circle id="XMLID_17_" class="st90" cx="1030.1" cy="704.7" r="1.2"/>
	<linearGradient id="XMLID_212_" gradientUnits="userSpaceOnUse" x1="1033.129" y1="704.656" x2="1035.5638" y2="704.656">
		<stop  offset="0" style="stop-color:#F68D1E"/>
		<stop  offset="1" style="stop-color:#D36227"/>
	</linearGradient>
	<circle id="XMLID_16_" class="st91" cx="1034.3" cy="704.7" r="1.2"/>
	<linearGradient id="XMLID_213_" gradientUnits="userSpaceOnUse" x1="1030.5269" y1="701.6126" x2="1031.2678" y2="701.6126">
		<stop  offset="0" style="stop-color:#F68D1E"/>
		<stop  offset="1" style="stop-color:#D36227"/>
	</linearGradient>
	<rect id="XMLID_15_" x="1030.5" y="698.6" class="st92" width="0.7" height="6.1"/>
	<linearGradient id="XMLID_214_" gradientUnits="userSpaceOnUse" x1="1034.8757" y1="701.6126" x2="1035.6167" y2="701.6126">
		<stop  offset="0" style="stop-color:#F68D1E"/>
		<stop  offset="1" style="stop-color:#D36227"/>
	</linearGradient>
	<rect id="XMLID_14_" x="1034.9" y="698.6" class="st93" width="0.7" height="6.1"/>
	<linearGradient id="XMLID_215_" gradientUnits="userSpaceOnUse" x1="1030.5269" y1="698.9926" x2="1035.6167" y2="698.9926">
		<stop  offset="0" style="stop-color:#F68D1E"/>
		<stop  offset="1" style="stop-color:#D36227"/>
	</linearGradient>
	<rect id="XMLID_13_" x="1030.5" y="698.6" class="st94" width="5.1" height="0.8"/>
</g>
<g id="XMLID_6_">
	<linearGradient id="XMLID_216_" gradientUnits="userSpaceOnUse" x1="1037.8313" y1="692.483" x2="1039.2516" y2="692.483">
		<stop  offset="0" style="stop-color:#F68D1E"/>
		<stop  offset="1" style="stop-color:#D36227"/>
	</linearGradient>
	<circle id="XMLID_11_" class="st95" cx="1038.5" cy="692.5" r="0.7"/>
	<linearGradient id="XMLID_217_" gradientUnits="userSpaceOnUse" x1="1040.3373" y1="692.483" x2="1041.7576" y2="692.483">
		<stop  offset="0" style="stop-color:#F68D1E"/>
		<stop  offset="1" style="stop-color:#D36227"/>
	</linearGradient>
	<circle id="XMLID_10_" class="st96" cx="1041" cy="692.5" r="0.7"/>
	<linearGradient id="XMLID_218_" gradientUnits="userSpaceOnUse" x1="1038.8193" y1="690.7077" x2="1039.2516" y2="690.7077">
		<stop  offset="0" style="stop-color:#F68D1E"/>
		<stop  offset="1" style="stop-color:#D36227"/>
	</linearGradient>
	<rect id="XMLID_9_" x="1038.8" y="688.9" class="st97" width="0.4" height="3.6"/>
	<linearGradient id="XMLID_219_" gradientUnits="userSpaceOnUse" x1="1041.3562" y1="690.7077" x2="1041.7885" y2="690.7077">
		<stop  offset="0" style="stop-color:#F68D1E"/>
		<stop  offset="1" style="stop-color:#D36227"/>
	</linearGradient>
	<rect id="XMLID_8_" x="1041.4" y="688.9" class="st98" width="0.4" height="3.6"/>
	<linearGradient id="XMLID_220_" gradientUnits="userSpaceOnUse" x1="1038.8193" y1="689.1794" x2="1041.7885" y2="689.1794">
		<stop  offset="0" style="stop-color:#F68D1E"/>
		<stop  offset="1" style="stop-color:#D36227"/>
	</linearGradient>
	<rect id="XMLID_7_" x="1038.8" y="688.9" class="st99" width="3" height="0.5"/>
</g>
<g id="XMLID_2_">
	<linearGradient id="XMLID_221_" gradientUnits="userSpaceOnUse" x1="1809.4763" y1="768.2976" x2="1824.3123" y2="768.2976">
		<stop  offset="0" style="stop-color:#5A7CBC"/>
		<stop  offset="1" style="stop-color:#325BA9"/>
	</linearGradient>
	<polygon id="XMLID_5_" class="st100" points="1817.9,755 1809.5,781.6 1824.3,781.6 	"/>
	<linearGradient id="XMLID_222_" gradientUnits="userSpaceOnUse" x1="1796.5262" y1="779.8646" x2="1837.2623" y2="779.8646">
		<stop  offset="0" style="stop-color:#F68D1E"/>
		<stop  offset="1" style="stop-color:#D36227"/>
	</linearGradient>
	<path id="XMLID_4_" class="st101" d="M1796.5,786.4c0-7.2,9.1-13.1,20.4-13.1s20.4,5.9,20.4,13.1"/>
	<linearGradient id="XMLID_223_" gradientUnits="userSpaceOnUse" x1="1788.1439" y1="765.2781" x2="1844.8203" y2="765.2781">
		<stop  offset="0" style="stop-color:#5A7CBC"/>
		<stop  offset="1" style="stop-color:#325BA9"/>
	</linearGradient>
	<path id="XMLID_3_" class="st102" d="M1788.2,773.3c0,0,19.1-3.3,29.7-18.4c0,0,9.3,20.6,26.9,21.1"/>
</g>
</svg>
