<?xml version="1.0" encoding="iso-8859-1"?>
<!-- Generator: Adobe Illustrator 19.0.0, SVG Export Plug-In . SVG Version: 6.00 Build 0)  -->
<svg version="1.1" id="Layer_1" xmlns="http://www.w3.org/2000/svg" xmlns:xlink="http://www.w3.org/1999/xlink" x="0px" y="0px"
	 width="512px" height="512px" viewBox="-743 745 512 512" style="enable-background:new -743 745 512 512;" xml:space="preserve">
<path d="M-274.093,959.604c-11.423,0-20.682,9.26-20.682,20.682v20.831c-0.031,54.338-21.221,105.412-59.666,143.812
	c-38.417,38.372-89.467,59.5-143.761,59.5c-0.04,0-0.08,0-0.12,0c-112.172-0.064-203.378-91.373-203.314-203.546
	c0.031-54.337,21.221-105.411,59.667-143.813c38.417-38.372,89.468-59.5,143.761-59.5c0.04,0,0.08,0,0.12,0
	c28.672,0.016,56.49,5.942,82.68,17.611c10.436,4.65,22.659-0.041,27.309-10.474c4.648-10.433-0.04-22.659-10.474-27.309
	c-31.516-14.043-64.989-21.173-99.492-21.192c-0.052,0-0.092,0-0.144,0c-65.329,0-126.767,25.428-172.993,71.6
	c-46.262,46.208-71.76,107.667-71.798,173.055c-0.037,65.386,25.389,126.874,71.599,173.136
	c46.21,46.262,107.668,71.76,173.055,71.798c0.051,0,0.092,0,0.144,0c65.329,0,126.767-25.427,172.993-71.6
	c46.262-46.209,71.76-107.668,71.798-173.066v-20.842C-253.411,968.864-262.67,959.604-274.093,959.604z M-237.058,784.803
	c-8.077-8.076-21.172-8.076-29.249,0l-231.899,231.898l-52.609-52.609c-8.076-8.077-21.172-8.077-29.248,0
	c-8.077,8.077-8.077,21.172,0,29.249l67.234,67.234c4.038,4.039,9.332,6.058,14.625,6.058s10.586-2.019,14.625-6.058
	l246.521-246.523C-228.981,805.975-228.981,792.88-237.058,784.803z"/>
</svg>
